<svg viewBox="0 0 50 50" xmlns="http://www.w3.org/2000/svg" xmlns:xlink="http://www.w3.org/1999/xlink" version="1.1"
    class="jsx-2263963463 artboard-inner" style="width: 30px; height: 30px; max-height: 100%;">
    <g transform="translate(25 25) scale(1.4285714285714286)" id="lockup4-icon">
        <g fill="#232323">
            <g transform="translate(-17.5 -17.5) scale(0.3431372549019608)" id="container">
                <g fill="#232323">
                    <circle vector-effect="non-scaling-stroke" cx="51" cy="51" r="50"></circle>
                </g>
            </g>
            <g transform="translate(-9.8 -9.818749850988388) scale(0.3125)" id="icon">
                <g fill="#FFFFFF">
                    <path
                        d="M51 52.5c0 .17 0 .33-.01.5a8.511 8.511 0 0 1-8.49 8H20a7.008 7.008 0 0 1-7-7 5.474 5.474 0 0 1 .08-1 7.002 7.002 0 0 1 6.05-5.94A1.066 1.066 0 0 0 20 46a5.982 5.982 0 0 1 8.08-5.62 1.009 1.009 0 0 0 .78-.04.948.948 0 0 0 .51-.58A6.999 6.999 0 0 1 43 42a6.119 6.119 0 0 1-.08.98 1.014 1.014 0 0 0 .85 1.13A8.53 8.53 0 0 1 51 52.5zM31.92 11H64a5.002 5.002 0 0 0-5-5H27.44l3.7 4.63a1.022 1.022 0 0 0 .78.37zm-2.34.88l-5-6.26A6.995 6.995 0 0 0 19.12 3H5a5.002 5.002 0 0 0-5 5v40a5.002 5.002 0 0 0 5 5h6.06a9.008 9.008 0 0 1 6.99-7.78A7.998 7.998 0 0 1 26 38a7.653 7.653 0 0 1 1.84.22A8.995 8.995 0 0 1 45 42c0 .1 0 .21-.01.31A10.569 10.569 0 0 1 53 52.5c0 .17 0 .33-.01.5H59a5.002 5.002 0 0 0 5-5V13H31.92a2.997 2.997 0 0 1-2.34-1.12z"
                        data-name="Folder Cloud"></path>
                </g>
            </g>
        </g>
    </g>
</svg>