<svg viewBox="0 -49 110.3954802259887 100" xmlns="http://www.w3.org/2000/svg" xmlns:xlink="http://www.w3.org/1999/xlink"
    version="1.1" class="jsx-2263963463 artboard-inner" style="width: 331.186px; height: 300px; max-height: 100%;">
    <g transform="translate(1.4689265536723162 25.463276836158187) scale(1.5693659761456367)" fill="#FFFFFF">
        <g id="line1">
            <path
                d="M0-8.280C-0.648-6.912-0.936-5.688-0.936-4.536C-0.936-1.440 1.008 0 4.176 0C8.496 0 11.664-4.824 12.672-7.488C13.176-8.784 11.448-9.360 10.872-8.280C10.296-7.056 8.208-2.016 4.176-2.016C2.304-2.016 1.224-2.808 1.224-4.536C1.224-5.184 1.512-6.264 2.016-7.416L17.496-41.184C18.144-42.696 16.056-43.416 15.480-42.048Z">
            </path>
            <path
                d="M22.032-8.280C21.384-6.912 21.096-5.688 21.096-4.536C21.096-1.440 23.040 0 26.208 0C30.528 0 33.696-4.824 34.704-7.488C35.208-8.784 33.480-9.360 32.904-8.280C32.328-7.056 30.240-2.016 26.208-2.016C24.336-2.016 23.256-2.808 23.256-4.536C23.256-5.184 23.544-6.264 24.048-7.416L29.304-18.720C29.952-20.088 30.240-21.240 30.240-22.392C30.240-25.488 28.008-27.000 24.768-27.000C23.472-27.000 22.320-26.496 21.312-25.704L28.368-41.184C29.016-42.696 26.928-43.416 26.352-42.048L10.872-8.280C9.792-5.976 7.776-2.016 4.176-2.016C2.736-2.016 2.664 0 4.176 0C8.784 0 11.880-5.184 12.960-7.488L18.504-19.656C19.512-21.672 21.672-24.984 24.768-24.984C26.712-24.984 28.080-24.120 28.080-22.392C28.080-21.744 27.792-20.664 27.288-19.584Z">
            </path>
            <path
                d="M47.520-24.624C48.888-24.624 49.536-26.640 48.168-26.640L43.704-26.640L46.728-33.192C50.328-40.968 55.584-45.432 60.840-45.432C65.520-45.432 67.248-42.984 67.248-40.464C67.248-38.448 65.664-35.640 62.496-35.424C60.984-35.424 60.984-33.408 62.496-33.408C66.888-33.552 69.408-37.512 69.408-40.464C69.408-44.064 66.960-47.448 60.840-47.448C53.496-47.448 47.952-40.968 44.136-32.688L41.328-26.640L39.744-26.640C38.232-26.640 37.656-24.624 39.096-24.624L40.392-24.624L28.224 2.016C24.696 9.792 19.368 14.256 14.112 14.256C9.432 14.256 7.704 11.808 7.704 9.288C7.704 7.272 9.288 4.464 12.456 4.248C13.968 4.248 13.968 2.232 12.456 2.232C8.064 2.376 5.544 6.336 5.544 9.288C5.544 12.888 7.992 16.272 14.112 16.272C21.456 16.272 26.856 10.296 30.600 2.016L42.768-24.624Z">
            </path>
            <path
                d="M42.912-0.432C43.848-0.072 44.928 0.144 46.080 0.144C52.128 0.144 56.880-5.400 57.384-11.160C57.672-15.768 54.432-20.160 54.792-24.912C54.864-25.848 55.152-26.856 55.584-27.864L55.944-28.656C56.664-30.168 54.504-30.888 53.928-29.520L44.136-8.280C43.488-6.912 45.216-5.904 45.936-7.488L52.704-21.816C53.352-18.000 55.512-14.760 55.224-11.088C54.864-6.048 51.048-2.016 46.296-2.016C45.576-2.016 44.856-2.088 44.208-2.304C43.272-2.592 42.552-3.096 42.048-3.672C40.896-4.680 39.600-3.096 40.392-2.232C41.040-1.512 41.904-0.864 42.912-0.432ZM55.728 0C60.048 0 63.216-4.824 64.224-7.488C64.728-8.784 63-9.360 62.424-8.280C61.848-7.056 59.760-2.016 55.728-2.016C54.648-2.016 54.648 0 55.728 0Z">
            </path>
        </g>
    </g>
</svg>