<svg id="visual" viewBox="0 0 960 540" width="960" height="540" xmlns="http://www.w3.org/2000/svg" xmlns:xlink="http://www.w3.org/1999/xlink" version="1.1"><path d="M0 44L14.5 47.7C29 51.3 58 58.7 87.2 56.8C116.3 55 145.7 44 174.8 39.5C204 35 233 37 262 38.8C291 40.7 320 42.3 349 46.8C378 51.3 407 58.7 436.2 58.7C465.3 58.7 494.7 51.3 523.8 46.8C553 42.3 582 40.7 611 41.7C640 42.7 669 46.3 698 45.3C727 44.3 756 38.7 785.2 39.5C814.3 40.3 843.7 47.7 872.8 48.7C902 49.7 931 44.3 945.5 41.7L960 39L960 0L945.5 0C931 0 902 0 872.8 0C843.7 0 814.3 0 785.2 0C756 0 727 0 698 0C669 0 640 0 611 0C582 0 553 0 523.8 0C494.7 0 465.3 0 436.2 0C407 0 378 0 349 0C320 0 291 0 262 0C233 0 204 0 174.8 0C145.7 0 116.3 0 87.2 0C58 0 29 0 14.5 0L0 0Z" fill="#2a4162"></path><path d="M0 233L14.5 239.3C29 245.7 58 258.3 87.2 261C116.3 263.7 145.7 256.3 174.8 251.8C204 247.3 233 245.7 262 240.3C291 235 320 226 349 213.3C378 200.7 407 184.3 436.2 176.2C465.3 168 494.7 168 523.8 165.3C553 162.7 582 157.3 611 164.7C640 172 669 192 698 202C727 212 756 212 785.2 209.2C814.3 206.3 843.7 200.7 872.8 195.2C902 189.7 931 184.3 945.5 181.7L960 179L960 37L945.5 39.7C931 42.3 902 47.7 872.8 46.7C843.7 45.7 814.3 38.3 785.2 37.5C756 36.7 727 42.3 698 43.3C669 44.3 640 40.7 611 39.7C582 38.7 553 40.3 523.8 44.8C494.7 49.3 465.3 56.7 436.2 56.7C407 56.7 378 49.3 349 44.8C320 40.3 291 38.7 262 36.8C233 35 204 33 174.8 37.5C145.7 42 116.3 53 87.2 54.8C58 56.7 29 49.3 14.5 45.7L0 42Z" fill="#2f496e"></path><path d="M0 266L14.5 273.2C29 280.3 58 294.7 87.2 300.8C116.3 307 145.7 305 174.8 300.5C204 296 233 289 262 281C291 273 320 264 349 251.3C378 238.7 407 222.3 436.2 216.8C465.3 211.3 494.7 216.7 523.8 214C553 211.3 582 200.7 611 207C640 213.3 669 236.7 698 248.3C727 260 756 260 785.2 253.7C814.3 247.3 843.7 234.7 872.8 230.2C902 225.7 931 229.3 945.5 231.2L960 233L960 177L945.5 179.7C931 182.3 902 187.7 872.8 193.2C843.7 198.7 814.3 204.3 785.2 207.2C756 210 727 210 698 200C669 190 640 170 611 162.7C582 155.3 553 160.7 523.8 163.3C494.7 166 465.3 166 436.2 174.2C407 182.3 378 198.7 349 211.3C320 224 291 233 262 238.3C233 243.7 204 245.3 174.8 249.8C145.7 254.3 116.3 261.7 87.2 259C58 256.3 29 243.7 14.5 237.3L0 231Z" fill="#34507a"></path><path d="M0 374L14.5 378.5C29 383 58 392 87.2 398.2C116.3 404.3 145.7 407.7 174.8 405.8C204 404 233 397 262 382.7C291 368.3 320 346.7 349 336.7C378 326.7 407 328.3 436.2 330.2C465.3 332 494.7 334 523.8 327.8C553 321.7 582 307.3 611 316.3C640 325.3 669 357.7 698 367.5C727 377.3 756 364.7 785.2 357.5C814.3 350.3 843.7 348.7 872.8 343.3C902 338 931 329 945.5 324.5L960 320L960 231L945.5 229.2C931 227.3 902 223.7 872.8 228.2C843.7 232.7 814.3 245.3 785.2 251.7C756 258 727 258 698 246.3C669 234.7 640 211.3 611 205C582 198.7 553 209.3 523.8 212C494.7 214.7 465.3 209.3 436.2 214.8C407 220.3 378 236.7 349 249.3C320 262 291 271 262 279C233 287 204 294 174.8 298.5C145.7 303 116.3 305 87.2 298.8C58 292.7 29 278.3 14.5 271.2L0 264Z" fill="#3a5886"></path><path d="M0 417L14.5 421.5C29 426 58 435 87.2 440.3C116.3 445.7 145.7 447.3 174.8 447.3C204 447.3 233 445.7 262 434.8C291 424 320 404 349 392.3C378 380.7 407 377.3 436.2 378.3C465.3 379.3 494.7 384.7 523.8 381C553 377.3 582 364.7 611 374.5C640 384.3 669 416.7 698 423.8C727 431 756 413 785.2 403.2C814.3 393.3 843.7 391.7 872.8 387.2C902 382.7 931 375.3 945.5 371.7L960 368L960 318L945.5 322.5C931 327 902 336 872.8 341.3C843.7 346.7 814.3 348.3 785.2 355.5C756 362.7 727 375.3 698 365.5C669 355.7 640 323.3 611 314.3C582 305.3 553 319.7 523.8 325.8C494.7 332 465.3 330 436.2 328.2C407 326.3 378 324.7 349 334.7C320 344.7 291 366.3 262 380.7C233 395 204 402 174.8 403.8C145.7 405.7 116.3 402.3 87.2 396.2C58 390 29 381 14.5 376.5L0 372Z" fill="#496490"></path><path d="M0 487L14.5 487C29 487 58 487 87.2 487C116.3 487 145.7 487 174.8 486.2C204 485.3 233 483.7 262 480C291 476.3 320 470.7 349 463.3C378 456 407 447 436.2 440.8C465.3 434.7 494.7 431.3 523.8 431.3C553 431.3 582 434.7 611 445.3C640 456 669 474 698 479.5C727 485 756 478 785.2 471.8C814.3 465.7 843.7 460.3 872.8 456.7C902 453 931 451 945.5 450L960 449L960 366L945.5 369.7C931 373.3 902 380.7 872.8 385.2C843.7 389.7 814.3 391.3 785.2 401.2C756 411 727 429 698 421.8C669 414.7 640 382.3 611 372.5C582 362.7 553 375.3 523.8 379C494.7 382.7 465.3 377.3 436.2 376.3C407 375.3 378 378.7 349 390.3C320 402 291 422 262 432.8C233 443.7 204 445.3 174.8 445.3C145.7 445.3 116.3 443.7 87.2 438.3C58 433 29 424 14.5 419.5L0 415Z" fill="#57719b"></path><path d="M0 541L14.5 541C29 541 58 541 87.2 541C116.3 541 145.7 541 174.8 541C204 541 233 541 262 541C291 541 320 541 349 541C378 541 407 541 436.2 541C465.3 541 494.7 541 523.8 541C553 541 582 541 611 541C640 541 669 541 698 541C727 541 756 541 785.2 541C814.3 541 843.7 541 872.8 541C902 541 931 541 945.5 541L960 541L960 447L945.5 448C931 449 902 451 872.8 454.7C843.7 458.3 814.3 463.7 785.2 469.8C756 476 727 483 698 477.5C669 472 640 454 611 443.3C582 432.7 553 429.3 523.8 429.3C494.7 429.3 465.3 432.7 436.2 438.8C407 445 378 454 349 461.3C320 468.7 291 474.3 262 478C233 481.7 204 483.3 174.8 484.2C145.7 485 116.3 485 87.2 485C58 485 29 485 14.5 485L0 485Z" fill="#667ea5"></path></svg>